<svg width="1227" height="180" viewBox="0 0 1227 180" fill="none" xmlns="http://www.w3.org/2000/svg">
<g clip-path="url(#clip0_573_179)">
<path d="M200.2 -0.199951H189.8V10.2H200.2V-0.199951Z" fill="white"/>
<path d="M190.2 9.80005H179.8V20.2H190.2V9.80005Z" fill="white"/>
<path d="M10.2 19.8H-0.200012V30.2H10.2V19.8Z" fill="white"/>
<path d="M180.2 19.8H169.8V30.2H180.2V19.8Z" fill="white"/>
<path d="M10.2 29.8H-0.200012V40.2H10.2V29.8Z" fill="white"/>
<path d="M20.2 29.8H9.79999V40.2H20.2V29.8Z" fill="white"/>
<path d="M170.2 29.8H159.8V40.2H170.2V29.8Z" fill="white"/>
<path d="M200.2 29.8H189.8V40.2H200.2V29.8Z" fill="white"/>
<path d="M10.2 39.8H-0.200012V50.2H10.2V39.8Z" fill="white"/>
<path d="M20.2 39.8H9.79999V50.2H20.2V39.8Z" fill="white"/>
<path d="M30.2 39.8H19.8V50.2H30.2V39.8Z" fill="white"/>
<path d="M160.2 39.8H149.8V50.2H160.2V39.8Z" fill="white"/>
<path d="M190.2 39.8H179.8V50.2H190.2V39.8Z" fill="white"/>
<path d="M200.2 39.8H189.8V50.2H200.2V39.8Z" fill="white"/>
<path d="M10.2 49.8H-0.200012V60.2H10.2V49.8Z" fill="white"/>
<path d="M20.2 49.8H9.79999V60.2H20.2V49.8Z" fill="white"/>
<path d="M30.2 49.8H19.8V60.2H30.2V49.8Z" fill="white"/>
<path d="M40.2 49.8H29.8V60.2H40.2V49.8Z" fill="white"/>
<path d="M100.2 49.8H89.8V60.2H100.2V49.8Z" fill="white"/>
<path d="M110.2 49.8H99.8V60.2H110.2V49.8Z" fill="white"/>
<path d="M150.2 49.8H139.8V60.2H150.2V49.8Z" fill="white"/>
<path d="M160.2 49.8H149.8V60.2H160.2V49.8Z" fill="white"/>
<path d="M180.2 49.8H169.8V60.2H180.2V49.8Z" fill="white"/>
<path d="M190.2 49.8H179.8V60.2H190.2V49.8Z" fill="white"/>
<path d="M200.2 49.8H189.8V60.2H200.2V49.8Z" fill="white"/>
<path d="M10.2 59.8H-0.200012V70.2H10.2V59.8Z" fill="white"/>
<path d="M20.2 59.8H9.79999V70.2H20.2V59.8Z" fill="white"/>
<path d="M30.2 59.8H19.8V70.2H30.2V59.8Z" fill="white"/>
<path d="M40.2 59.8H29.8V70.2H40.2V59.8Z" fill="white"/>
<path d="M50.2 59.8H39.8V70.2H50.2V59.8Z" fill="white"/>
<path d="M100.2 59.8H89.8V70.2H100.2V59.8Z" fill="white"/>
<path d="M110.2 59.8H99.8V70.2H110.2V59.8Z" fill="white"/>
<path d="M140.2 59.8H129.8V70.2H140.2V59.8Z" fill="white"/>
<path d="M150.2 59.8H139.8V70.2H150.2V59.8Z" fill="white"/>
<path d="M170.2 59.8H159.8V70.2H170.2V59.8Z" fill="white"/>
<path d="M180.2 59.8H169.8V70.2H180.2V59.8Z" fill="white"/>
<path d="M190.2 59.8H179.8V70.2H190.2V59.8Z" fill="white"/>
<path d="M200.2 59.8H189.8V70.2H200.2V59.8Z" fill="white"/>
<path d="M10.2 69.8H-0.200012V80.2001H10.2V69.8Z" fill="white"/>
<path d="M20.2 69.8H9.79999V80.2001H20.2V69.8Z" fill="white"/>
<path d="M30.2 69.8H19.8V80.2001H30.2V69.8Z" fill="white"/>
<path d="M40.2 69.8H29.8V80.2001H40.2V69.8Z" fill="white"/>
<path d="M50.2 69.8H39.8V80.2001H50.2V69.8Z" fill="white"/>
<path d="M60.2 69.8H49.8V80.2001H60.2V69.8Z" fill="white"/>
<path d="M130.2 69.8H119.8V80.2001H130.2V69.8Z" fill="white"/>
<path d="M140.2 69.8H129.8V80.2001H140.2V69.8Z" fill="white"/>
<path d="M170.2 69.8H159.8V80.2001H170.2V69.8Z" fill="white"/>
<path d="M180.2 69.8H169.8V80.2001H180.2V69.8Z" fill="white"/>
<path d="M190.2 69.8H179.8V80.2001H190.2V69.8Z" fill="white"/>
<path d="M200.2 69.8H189.8V80.2001H200.2V69.8Z" fill="white"/>
<path d="M10.2 79.8H-0.200012V90.2001H10.2V79.8Z" fill="white"/>
<path d="M20.2 79.8H9.79999V90.2001H20.2V79.8Z" fill="white"/>
<path d="M30.2 79.8H19.8V90.2001H30.2V79.8Z" fill="white"/>
<path d="M50.2 79.8H39.8V90.2001H50.2V79.8Z" fill="white"/>
<path d="M60.2 79.8H49.8V90.2001H60.2V79.8Z" fill="white"/>
<path d="M70.2 79.8H59.8V90.2001H70.2V79.8Z" fill="white"/>
<path d="M120.2 79.8H109.8V90.2001H120.2V79.8Z" fill="white"/>
<path d="M130.2 79.8H119.8V90.2001H130.2V79.8Z" fill="white"/>
<path d="M170.2 79.8H159.8V90.2001H170.2V79.8Z" fill="white"/>
<path d="M180.2 79.8H169.8V90.2001H180.2V79.8Z" fill="white"/>
<path d="M190.2 79.8H179.8V90.2001H190.2V79.8Z" fill="white"/>
<path d="M200.2 79.8H189.8V90.2001H200.2V79.8Z" fill="white"/>
<path d="M10.2 89.8H-0.200012V100.2H10.2V89.8Z" fill="white"/>
<path d="M20.2 89.8H9.79999V100.2H20.2V89.8Z" fill="white"/>
<path d="M60.2 89.8H49.8V100.2H60.2V89.8Z" fill="white"/>
<path d="M70.2 89.8H59.8V100.2H70.2V89.8Z" fill="white"/>
<path d="M80.2 89.8H69.8V100.2H80.2V89.8Z" fill="white"/>
<path d="M110.2 89.8H99.8V100.2H110.2V89.8Z" fill="white"/>
<path d="M120.2 89.8H109.8V100.2H120.2V89.8Z" fill="white"/>
<path d="M130.2 89.8H119.8V100.2H130.2V89.8Z" fill="white"/>
<path d="M170.2 89.8H159.8V100.2H170.2V89.8Z" fill="white"/>
<path d="M180.2 89.8H169.8V100.2H180.2V89.8Z" fill="white"/>
<path d="M190.2 89.8H179.8V100.2H190.2V89.8Z" fill="white"/>
<path d="M200.2 89.8H189.8V100.2H200.2V89.8Z" fill="white"/>
<path d="M10.2 99.8H-0.200012V110.2H10.2V99.8Z" fill="white"/>
<path d="M20.2 99.8H9.79999V110.2H20.2V99.8Z" fill="white"/>
<path d="M70.2 99.8H59.8V110.2H70.2V99.8Z" fill="white"/>
<path d="M80.2 99.8H69.8V110.2H80.2V99.8Z" fill="white"/>
<path d="M90.2 99.8H79.8V110.2H90.2V99.8Z" fill="white"/>
<path d="M100.2 99.8H89.8V110.2H100.2V99.8Z" fill="white"/>
<path d="M110.2 99.8H99.8V110.2H110.2V99.8Z" fill="white"/>
<path d="M120.2 99.8H109.8V110.2H120.2V99.8Z" fill="white"/>
<path d="M170.2 99.8H159.8V110.2H170.2V99.8Z" fill="white"/>
<path d="M180.2 99.8H169.8V110.2H180.2V99.8Z" fill="white"/>
<path d="M190.2 99.8H179.8V110.2H190.2V99.8Z" fill="white"/>
<path d="M200.2 99.8H189.8V110.2H200.2V99.8Z" fill="white"/>
<path d="M10.2 109.8H-0.200012V120.2H10.2V109.8Z" fill="white"/>
<path d="M20.2 109.8H9.79999V120.2H20.2V109.8Z" fill="white"/>
<path d="M80.2 109.8H69.8V120.2H80.2V109.8Z" fill="white"/>
<path d="M90.2 109.8H79.8V120.2H90.2V109.8Z" fill="white"/>
<path d="M100.2 109.8H89.8V120.2H100.2V109.8Z" fill="white"/>
<path d="M110.2 109.8H99.8V120.2H110.2V109.8Z" fill="white"/>
<path d="M170.2 109.8H159.8V120.2H170.2V109.8Z" fill="white"/>
<path d="M180.2 109.8H169.8V120.2H180.2V109.8Z" fill="white"/>
<path d="M190.2 109.8H179.8V120.2H190.2V109.8Z" fill="white"/>
<path d="M200.2 109.8H189.8V120.2H200.2V109.8Z" fill="white"/>
<path d="M10.2 119.8H-0.200012V130.2H10.2V119.8Z" fill="white"/>
<path d="M20.2 119.8H9.79999V130.2H20.2V119.8Z" fill="white"/>
<path d="M80.2 119.8H69.8V130.2H80.2V119.8Z" fill="white"/>
<path d="M90.2 119.8H79.8V130.2H90.2V119.8Z" fill="white"/>
<path d="M100.2 119.8H89.8V130.2H100.2V119.8Z" fill="white"/>
<path d="M110.2 119.8H99.8V130.2H110.2V119.8Z" fill="white"/>
<path d="M170.2 119.8H159.8V130.2H170.2V119.8Z" fill="white"/>
<path d="M180.2 119.8H169.8V130.2H180.2V119.8Z" fill="white"/>
<path d="M190.2 119.8H179.8V130.2H190.2V119.8Z" fill="white"/>
<path d="M200.2 119.8H189.8V130.2H200.2V119.8Z" fill="white"/>
<path d="M10.2 129.8H-0.200012V140.2H10.2V129.8Z" fill="white"/>
<path d="M20.2 129.8H9.79999V140.2H20.2V129.8Z" fill="white"/>
<path d="M90.2 129.8H79.8V140.2H90.2V129.8Z" fill="white"/>
<path d="M100.2 129.8H89.8V140.2H100.2V129.8Z" fill="white"/>
<path d="M170.2 129.8H159.8V140.2H170.2V129.8Z" fill="white"/>
<path d="M180.2 129.8H169.8V140.2H180.2V129.8Z" fill="white"/>
<path d="M190.2 129.8H179.8V140.2H190.2V129.8Z" fill="white"/>
<path d="M200.2 129.8H189.8V140.2H200.2V129.8Z" fill="white"/>
<path d="M10.2 139.8H-0.200012V150.2H10.2V139.8Z" fill="white"/>
<path d="M20.2 139.8H9.79999V150.2H20.2V139.8Z" fill="white"/>
<path d="M90.2 139.8H79.8V150.2H90.2V139.8Z" fill="white"/>
<path d="M170.2 139.8H159.8V150.2H170.2V139.8Z" fill="white"/>
<path d="M180.2 139.8H169.8V150.2H180.2V139.8Z" fill="white"/>
<path d="M190.2 139.8H179.8V150.2H190.2V139.8Z" fill="white"/>
<path d="M200.2 139.8H189.8V150.2H200.2V139.8Z" fill="white"/>
<path d="M20.2 149.8H9.79999V160.2H20.2V149.8Z" fill="white"/>
<path d="M80.2 149.8H69.8V160.2H80.2V149.8Z" fill="white"/>
<path d="M90.2 149.8H79.8V160.2H90.2V149.8Z" fill="white"/>
<path d="M170.2 149.8H159.8V160.2H170.2V149.8Z" fill="white"/>
<path d="M180.2 149.8H169.8V160.2H180.2V149.8Z" fill="white"/>
<path d="M190.2 149.8H179.8V160.2H190.2V149.8Z" fill="white"/>
<path d="M70.2 159.8H59.8V170.2H70.2V159.8Z" fill="white"/>
<path d="M80.2 159.8H69.8V170.2H80.2V159.8Z" fill="white"/>
<path d="M170.2 159.8H159.8V170.2H170.2V159.8Z" fill="white"/>
<path d="M180.2 159.8H169.8V170.2H180.2V159.8Z" fill="white"/>
<path d="M70.2 169.8H59.8V180.2H70.2V169.8Z" fill="white"/>
</g>
<path d="M1156.18 139.6C1106.9 139.6 1085.78 119.12 1085.78 81.84C1085.78 44.72 1106.9 24.4 1156.18 24.4C1205.3 24.4 1226.58 44.88 1226.58 81.84C1226.58 118.96 1205.3 139.6 1156.18 139.6ZM1156.18 115.44C1186.1 115.44 1197.78 104.72 1197.78 81.84C1197.78 59.12 1186.26 48.56 1156.18 48.56C1126.1 48.56 1114.58 58.96 1114.58 81.84C1114.58 104.88 1126.26 115.44 1156.18 115.44Z" fill="white"/>
<path d="M1093.95 67.12C1093.95 85.36 1084.67 98.8 1069.63 104.72L1090.27 138H1056.35L1038.27 108.08H991.867V138H963.068V26H1051.07C1076.51 26 1093.95 42.16 1093.95 67.12ZM991.867 50.16V83.92H1043.07C1051.71 83.92 1065.15 83.92 1065.15 67.12C1065.15 50.16 1051.71 50.16 1043.07 50.16H991.867Z" fill="white"/>
<path d="M969.599 26V50.16H915.199V138H886.399V50.16H831.999V26H969.599Z" fill="white"/>
<path d="M705.03 99.44H733.83C733.83 111.28 743.43 116.72 779.91 116.72C810.15 116.72 819.27 113.36 819.27 104.56C819.27 95.28 812.87 93.68 776.55 91.92C727.75 89.68 708.39 82 708.39 56.88C708.39 32.24 733.51 24.4 775.43 24.4C817.67 24.4 843.27 34.96 843.27 62.64H814.47C814.47 50.32 802.15 47.28 772.23 47.28C743.91 47.28 737.19 50 737.19 58.32C737.19 66.96 743.91 68.56 776.55 70.48C820.71 72.88 848.07 75.28 848.07 103.6C848.07 133.52 819.75 139.6 778.31 139.6C732.39 139.6 705.03 131.76 705.03 99.44Z" fill="white"/>
<path d="M712.124 48.88H622.524V71.6H712.124V92.4H622.524V115.12H712.124V138H593.724V26H712.124V48.88Z" fill="white"/>
<path d="M571 138L559 114.16H491.96L479.96 138H448.28L506.04 26H544.92L602.84 138H571ZM502.68 92.72H548.28L525.56 47.28L502.68 92.72Z" fill="white"/>
<path d="M457.4 26V138H428.6V61.2L382.04 138H361.24L314.68 61.2V138H285.88V26H324.76L371.64 105.04L418.52 26H457.4Z" fill="white"/>
<defs>
<clipPath id="clip0_573_179">
<rect width="200" height="180" fill="white"/>
</clipPath>
</defs>
</svg>
